<mxfile host="app.diagrams.net" modified="2024-02-01T19:31:08.254Z" agent="Mozilla/5.0 (Windows NT 10.0; Win64; x64) AppleWebKit/537.36 (KHTML, like Gecko) Chrome/121.0.0.0 Safari/537.36" etag="8hSnXzq2ZqkjoeAAJGki" version="23.0.1" type="google">
  <diagram name="Página-1" id="zlWyyFHjS7KnxpsBfyO-">
    <mxGraphModel grid="1" page="1" gridSize="10" guides="1" tooltips="1" connect="1" arrows="1" fold="1" pageScale="1" pageWidth="827" pageHeight="1169" math="0" shadow="0">
      <root>
        <mxCell id="0" />
        <mxCell id="1" parent="0" />
        <mxCell id="g6TlrqKrKqGTbKnrcmNp-2" value="" style="shape=umlActor;verticalLabelPosition=bottom;verticalAlign=top;html=1;outlineConnect=0;" vertex="1" parent="1">
          <mxGeometry x="2800" y="-902.5" width="30" height="60" as="geometry" />
        </mxCell>
        <mxCell id="g6TlrqKrKqGTbKnrcmNp-3" value="" style="shape=umlActor;verticalLabelPosition=bottom;verticalAlign=top;html=1;outlineConnect=0;" vertex="1" parent="1">
          <mxGeometry x="2785" y="-660" width="30" height="60" as="geometry" />
        </mxCell>
        <mxCell id="g6TlrqKrKqGTbKnrcmNp-12" value="" style="shape=umlActor;verticalLabelPosition=bottom;verticalAlign=top;html=1;outlineConnect=0;" vertex="1" parent="1">
          <mxGeometry x="2050" y="-782.5" width="30" height="60" as="geometry" />
        </mxCell>
        <mxCell id="g6TlrqKrKqGTbKnrcmNp-25" value="&lt;font style=&quot;font-size: 24px;&quot;&gt;Sistema&lt;/font&gt;" style="text;html=1;align=center;verticalAlign=middle;resizable=0;points=[];autosize=1;strokeColor=none;fillColor=none;fontSize=12;fontFamily=Helvetica;fontColor=default;" vertex="1" parent="1">
          <mxGeometry x="2397.62" y="-1169" width="110" height="40" as="geometry" />
        </mxCell>
        <mxCell id="g6TlrqKrKqGTbKnrcmNp-28" value="" style="endArrow=none;html=1;rounded=0;exitX=0;exitY=0.5;exitDx=0;exitDy=0;entryX=0.5;entryY=0.5;entryDx=0;entryDy=0;entryPerimeter=0;" edge="1" parent="1" source="g6TlrqKrKqGTbKnrcmNp-19" target="g6TlrqKrKqGTbKnrcmNp-12">
          <mxGeometry width="50" height="50" relative="1" as="geometry">
            <mxPoint x="2410" y="-823" as="sourcePoint" />
            <mxPoint x="1870" y="-740" as="targetPoint" />
          </mxGeometry>
        </mxCell>
        <mxCell id="g6TlrqKrKqGTbKnrcmNp-29" value="" style="endArrow=none;html=1;rounded=0;exitX=0;exitY=0.5;exitDx=0;exitDy=0;entryX=0.5;entryY=0.5;entryDx=0;entryDy=0;entryPerimeter=0;" edge="1" parent="1" source="g6TlrqKrKqGTbKnrcmNp-21" target="g6TlrqKrKqGTbKnrcmNp-12">
          <mxGeometry width="50" height="50" relative="1" as="geometry">
            <mxPoint x="2400" y="-754" as="sourcePoint" />
            <mxPoint x="1880" y="-740" as="targetPoint" />
          </mxGeometry>
        </mxCell>
        <mxCell id="g6TlrqKrKqGTbKnrcmNp-69" value="" style="endArrow=none;html=1;rounded=0;entryX=1;entryY=0.5;entryDx=0;entryDy=0;exitX=0.5;exitY=0.5;exitDx=0;exitDy=0;exitPerimeter=0;" edge="1" parent="1" source="g6TlrqKrKqGTbKnrcmNp-2" target="g6TlrqKrKqGTbKnrcmNp-50">
          <mxGeometry width="50" height="50" relative="1" as="geometry">
            <mxPoint x="2970" y="-804" as="sourcePoint" />
            <mxPoint x="2514" y="-131" as="targetPoint" />
          </mxGeometry>
        </mxCell>
        <mxCell id="g6TlrqKrKqGTbKnrcmNp-81" value="" style="endArrow=none;html=1;rounded=0;exitX=0.5;exitY=0.5;exitDx=0;exitDy=0;exitPerimeter=0;entryX=1;entryY=0.5;entryDx=0;entryDy=0;" edge="1" parent="1" source="g6TlrqKrKqGTbKnrcmNp-3" target="pZqcnwQ3ei07YMzrSG-r-71">
          <mxGeometry width="50" height="50" relative="1" as="geometry">
            <mxPoint x="2980" y="-794" as="sourcePoint" />
            <mxPoint x="2500" y="-330" as="targetPoint" />
          </mxGeometry>
        </mxCell>
        <mxCell id="YJ4rmTF5njAcsNLF05vT-4" value="" style="endArrow=none;html=1;rounded=0;exitX=1;exitY=0.5;exitDx=0;exitDy=0;entryX=0.5;entryY=0.5;entryDx=0;entryDy=0;entryPerimeter=0;" edge="1" parent="1" source="YJ4rmTF5njAcsNLF05vT-2" target="g6TlrqKrKqGTbKnrcmNp-2">
          <mxGeometry width="50" height="50" relative="1" as="geometry">
            <mxPoint x="3513.75" y="-936" as="sourcePoint" />
            <mxPoint x="2890" y="-770" as="targetPoint" />
          </mxGeometry>
        </mxCell>
        <mxCell id="VsF2s4kvoCk62uNaAJ5z-8" value="" style="endArrow=none;html=1;rounded=0;entryX=0;entryY=0.5;entryDx=0;entryDy=0;exitX=0.5;exitY=0.5;exitDx=0;exitDy=0;exitPerimeter=0;" edge="1" parent="1" source="g6TlrqKrKqGTbKnrcmNp-12" target="YJ4rmTF5njAcsNLF05vT-2">
          <mxGeometry width="50" height="50" relative="1" as="geometry">
            <mxPoint x="1840" y="-750" as="sourcePoint" />
            <mxPoint x="2315" y="-864" as="targetPoint" />
          </mxGeometry>
        </mxCell>
        <mxCell id="VsF2s4kvoCk62uNaAJ5z-12" value="&lt;div style=&quot;text-align: center;&quot;&gt;API Externa&lt;/div&gt;" style="text;whiteSpace=wrap;html=1;" vertex="1" parent="1">
          <mxGeometry x="2772.5" y="-690" width="85" height="40" as="geometry" />
        </mxCell>
        <mxCell id="VsF2s4kvoCk62uNaAJ5z-23" value="&lt;div style=&quot;text-align: center;&quot;&gt;Usuário&lt;/div&gt;" style="text;whiteSpace=wrap;html=1;" vertex="1" parent="1">
          <mxGeometry x="2040" y="-810" width="80" height="40" as="geometry" />
        </mxCell>
        <mxCell id="VsF2s4kvoCk62uNaAJ5z-40" value="" style="endArrow=none;html=1;rounded=0;entryX=1;entryY=0.5;entryDx=0;entryDy=0;exitX=0.5;exitY=0.5;exitDx=0;exitDy=0;exitPerimeter=0;" edge="1" parent="1" source="g6TlrqKrKqGTbKnrcmNp-2" target="g6TlrqKrKqGTbKnrcmNp-49">
          <mxGeometry width="50" height="50" relative="1" as="geometry">
            <mxPoint x="2995" y="-824" as="sourcePoint" />
            <mxPoint x="2511" y="10" as="targetPoint" />
          </mxGeometry>
        </mxCell>
        <mxCell id="pZqcnwQ3ei07YMzrSG-r-4" value="" style="endArrow=none;html=1;rounded=0;exitX=1;exitY=0.5;exitDx=0;exitDy=0;entryX=0.5;entryY=0.5;entryDx=0;entryDy=0;entryPerimeter=0;" edge="1" parent="1" source="g6TlrqKrKqGTbKnrcmNp-19" target="g6TlrqKrKqGTbKnrcmNp-2">
          <mxGeometry width="50" height="50" relative="1" as="geometry">
            <mxPoint x="2515" y="-700" as="sourcePoint" />
            <mxPoint x="2800" y="-820" as="targetPoint" />
          </mxGeometry>
        </mxCell>
        <mxCell id="pZqcnwQ3ei07YMzrSG-r-5" value="" style="endArrow=none;html=1;rounded=0;exitX=1;exitY=0.5;exitDx=0;exitDy=0;entryX=0.5;entryY=0.5;entryDx=0;entryDy=0;entryPerimeter=0;" edge="1" parent="1" source="g6TlrqKrKqGTbKnrcmNp-21" target="g6TlrqKrKqGTbKnrcmNp-2">
          <mxGeometry width="50" height="50" relative="1" as="geometry">
            <mxPoint x="2513" y="-616" as="sourcePoint" />
            <mxPoint x="2810" y="-810" as="targetPoint" />
          </mxGeometry>
        </mxCell>
        <mxCell id="pZqcnwQ3ei07YMzrSG-r-6" value="" style="endArrow=none;html=1;rounded=0;exitX=0;exitY=0.5;exitDx=0;exitDy=0;entryX=0.5;entryY=0.5;entryDx=0;entryDy=0;entryPerimeter=0;" edge="1" parent="1" source="g6TlrqKrKqGTbKnrcmNp-49" target="g6TlrqKrKqGTbKnrcmNp-12">
          <mxGeometry width="50" height="50" relative="1" as="geometry">
            <mxPoint x="2412" y="-531" as="sourcePoint" />
            <mxPoint x="2035" y="-742" as="targetPoint" />
          </mxGeometry>
        </mxCell>
        <mxCell id="pZqcnwQ3ei07YMzrSG-r-7" value="&lt;div style=&quot;text-align: center;&quot;&gt;Admnistração&lt;/div&gt;" style="text;whiteSpace=wrap;html=1;" vertex="1" parent="1">
          <mxGeometry x="2775" y="-930" width="55" height="40" as="geometry" />
        </mxCell>
        <mxCell id="pZqcnwQ3ei07YMzrSG-r-9" value="" style="shape=umlActor;verticalLabelPosition=bottom;verticalAlign=top;html=1;outlineConnect=0;" vertex="1" parent="1">
          <mxGeometry x="2837.5" y="127.5" width="30" height="60" as="geometry" />
        </mxCell>
        <mxCell id="pZqcnwQ3ei07YMzrSG-r-13" value="" style="shape=umlActor;verticalLabelPosition=bottom;verticalAlign=top;html=1;outlineConnect=0;" vertex="1" parent="1">
          <mxGeometry x="2010" y="127.5" width="30" height="60" as="geometry" />
        </mxCell>
        <mxCell id="pZqcnwQ3ei07YMzrSG-r-18" value="&lt;font style=&quot;font-size: 24px;&quot;&gt;Sistema&lt;/font&gt;" style="text;html=1;align=center;verticalAlign=middle;resizable=0;points=[];autosize=1;strokeColor=none;fillColor=none;fontSize=12;fontFamily=Helvetica;fontColor=default;" vertex="1" parent="1">
          <mxGeometry x="2393.2999999999997" y="-260" width="110" height="40" as="geometry" />
        </mxCell>
        <mxCell id="pZqcnwQ3ei07YMzrSG-r-19" value="" style="endArrow=none;html=1;rounded=0;exitX=0;exitY=0.5;exitDx=0;exitDy=0;entryX=0.5;entryY=0.5;entryDx=0;entryDy=0;entryPerimeter=0;" edge="1" parent="1" source="pZqcnwQ3ei07YMzrSG-r-15" target="pZqcnwQ3ei07YMzrSG-r-13">
          <mxGeometry width="50" height="50" relative="1" as="geometry">
            <mxPoint x="2400" y="77" as="sourcePoint" />
            <mxPoint x="1840" y="160" as="targetPoint" />
          </mxGeometry>
        </mxCell>
        <mxCell id="pZqcnwQ3ei07YMzrSG-r-20" value="" style="endArrow=none;html=1;rounded=0;exitX=0;exitY=0.5;exitDx=0;exitDy=0;entryX=0.5;entryY=0.5;entryDx=0;entryDy=0;entryPerimeter=0;" edge="1" parent="1" source="pZqcnwQ3ei07YMzrSG-r-16" target="pZqcnwQ3ei07YMzrSG-r-13">
          <mxGeometry width="50" height="50" relative="1" as="geometry">
            <mxPoint x="2410" y="87" as="sourcePoint" />
            <mxPoint x="1870" y="170" as="targetPoint" />
          </mxGeometry>
        </mxCell>
        <mxCell id="pZqcnwQ3ei07YMzrSG-r-21" value="" style="endArrow=none;html=1;rounded=0;exitX=0;exitY=0.5;exitDx=0;exitDy=0;entryX=0.5;entryY=0.5;entryDx=0;entryDy=0;entryPerimeter=0;" edge="1" parent="1" source="pZqcnwQ3ei07YMzrSG-r-17" target="pZqcnwQ3ei07YMzrSG-r-13">
          <mxGeometry width="50" height="50" relative="1" as="geometry">
            <mxPoint x="2400" y="156" as="sourcePoint" />
            <mxPoint x="1880" y="170" as="targetPoint" />
          </mxGeometry>
        </mxCell>
        <mxCell id="pZqcnwQ3ei07YMzrSG-r-31" value="" style="endArrow=none;html=1;rounded=0;entryX=0;entryY=0.5;entryDx=0;entryDy=0;exitX=0.5;exitY=0.5;exitDx=0;exitDy=0;exitPerimeter=0;" edge="1" parent="1" source="pZqcnwQ3ei07YMzrSG-r-13" target="pZqcnwQ3ei07YMzrSG-r-29">
          <mxGeometry width="50" height="50" relative="1" as="geometry">
            <mxPoint x="1840" y="160" as="sourcePoint" />
            <mxPoint x="2315" y="46" as="targetPoint" />
          </mxGeometry>
        </mxCell>
        <mxCell id="pZqcnwQ3ei07YMzrSG-r-32" value="&lt;div style=&quot;text-align: center;&quot;&gt;&lt;span style=&quot;background-color: initial;&quot;&gt;Administração&lt;/span&gt;&lt;/div&gt;" style="text;whiteSpace=wrap;html=1;" vertex="1" parent="1">
          <mxGeometry x="2810" y="87.5" width="85" height="40" as="geometry" />
        </mxCell>
        <mxCell id="pZqcnwQ3ei07YMzrSG-r-33" value="&lt;div style=&quot;text-align: center;&quot;&gt;Usuário&lt;/div&gt;" style="text;whiteSpace=wrap;html=1;" vertex="1" parent="1">
          <mxGeometry x="2000" y="100" width="80" height="40" as="geometry" />
        </mxCell>
        <mxCell id="pZqcnwQ3ei07YMzrSG-r-46" value="" style="endArrow=none;html=1;rounded=0;exitX=0;exitY=0.5;exitDx=0;exitDy=0;entryX=0.5;entryY=0.5;entryDx=0;entryDy=0;entryPerimeter=0;" edge="1" parent="1" source="pZqcnwQ3ei07YMzrSG-r-23" target="pZqcnwQ3ei07YMzrSG-r-13">
          <mxGeometry width="50" height="50" relative="1" as="geometry">
            <mxPoint x="2412" y="379" as="sourcePoint" />
            <mxPoint x="2035" y="168" as="targetPoint" />
          </mxGeometry>
        </mxCell>
        <mxCell id="pZqcnwQ3ei07YMzrSG-r-48" value="" style="endArrow=none;html=1;rounded=0;entryX=1;entryY=0.5;entryDx=0;entryDy=0;exitX=0.5;exitY=0.5;exitDx=0;exitDy=0;exitPerimeter=0;" edge="1" parent="1" source="pZqcnwQ3ei07YMzrSG-r-9" target="pZqcnwQ3ei07YMzrSG-r-15">
          <mxGeometry width="50" height="50" relative="1" as="geometry">
            <mxPoint x="3035" y="300" as="sourcePoint" />
            <mxPoint x="2510" y="41" as="targetPoint" />
          </mxGeometry>
        </mxCell>
        <mxCell id="pZqcnwQ3ei07YMzrSG-r-49" value="" style="endArrow=none;html=1;rounded=0;entryX=1;entryY=0.5;entryDx=0;entryDy=0;exitX=0.5;exitY=0.5;exitDx=0;exitDy=0;exitPerimeter=0;" edge="1" parent="1" source="pZqcnwQ3ei07YMzrSG-r-9" target="pZqcnwQ3ei07YMzrSG-r-29">
          <mxGeometry width="50" height="50" relative="1" as="geometry">
            <mxPoint x="3030" y="290" as="sourcePoint" />
            <mxPoint x="2511" y="130" as="targetPoint" />
          </mxGeometry>
        </mxCell>
        <mxCell id="pZqcnwQ3ei07YMzrSG-r-50" value="" style="endArrow=none;html=1;rounded=0;entryX=1;entryY=0.5;entryDx=0;entryDy=0;exitX=0.5;exitY=0.5;exitDx=0;exitDy=0;exitPerimeter=0;" edge="1" parent="1" source="pZqcnwQ3ei07YMzrSG-r-9" target="pZqcnwQ3ei07YMzrSG-r-16">
          <mxGeometry width="50" height="50" relative="1" as="geometry">
            <mxPoint x="3030" y="284" as="sourcePoint" />
            <mxPoint x="2515" y="210" as="targetPoint" />
          </mxGeometry>
        </mxCell>
        <mxCell id="pZqcnwQ3ei07YMzrSG-r-51" value="" style="endArrow=none;html=1;rounded=0;entryX=1;entryY=0.5;entryDx=0;entryDy=0;exitX=0.5;exitY=0.5;exitDx=0;exitDy=0;exitPerimeter=0;" edge="1" parent="1" source="pZqcnwQ3ei07YMzrSG-r-9" target="pZqcnwQ3ei07YMzrSG-r-17">
          <mxGeometry width="50" height="50" relative="1" as="geometry">
            <mxPoint x="3035" y="300" as="sourcePoint" />
            <mxPoint x="2513" y="294" as="targetPoint" />
          </mxGeometry>
        </mxCell>
        <mxCell id="pZqcnwQ3ei07YMzrSG-r-52" value="" style="endArrow=none;html=1;rounded=0;entryX=1;entryY=0.5;entryDx=0;entryDy=0;exitX=0.5;exitY=0.5;exitDx=0;exitDy=0;exitPerimeter=0;" edge="1" parent="1" source="pZqcnwQ3ei07YMzrSG-r-9" target="pZqcnwQ3ei07YMzrSG-r-23">
          <mxGeometry width="50" height="50" relative="1" as="geometry">
            <mxPoint x="3045" y="310" as="sourcePoint" />
            <mxPoint x="2512" y="379" as="targetPoint" />
          </mxGeometry>
        </mxCell>
        <mxCell id="pZqcnwQ3ei07YMzrSG-r-53" value="" style="endArrow=none;html=1;rounded=0;entryX=1;entryY=0.5;entryDx=0;entryDy=0;exitX=0.5;exitY=0.5;exitDx=0;exitDy=0;exitPerimeter=0;" edge="1" parent="1" source="pZqcnwQ3ei07YMzrSG-r-9" target="pZqcnwQ3ei07YMzrSG-r-24">
          <mxGeometry width="50" height="50" relative="1" as="geometry">
            <mxPoint x="3055" y="320" as="sourcePoint" />
            <mxPoint x="2515" y="459" as="targetPoint" />
          </mxGeometry>
        </mxCell>
        <mxCell id="pZqcnwQ3ei07YMzrSG-r-58" value="" style="swimlane;startSize=0;" vertex="1" parent="1">
          <mxGeometry x="2159.02" y="-199" width="580" height="609" as="geometry" />
        </mxCell>
        <mxCell id="pZqcnwQ3ei07YMzrSG-r-15" value="Criar consultas" style="ellipse;whiteSpace=wrap;html=1;" vertex="1" parent="pZqcnwQ3ei07YMzrSG-r-58">
          <mxGeometry x="234.41000000000008" y="59" width="105" height="60" as="geometry" />
        </mxCell>
        <mxCell id="pZqcnwQ3ei07YMzrSG-r-16" value="Excluir Consultas" style="ellipse;whiteSpace=wrap;html=1;" vertex="1" parent="pZqcnwQ3ei07YMzrSG-r-58">
          <mxGeometry x="233.58999999999992" y="223" width="108.56" height="60" as="geometry" />
        </mxCell>
        <mxCell id="pZqcnwQ3ei07YMzrSG-r-17" value="Realizar consultas" style="ellipse;whiteSpace=wrap;html=1;" vertex="1" parent="pZqcnwQ3ei07YMzrSG-r-58">
          <mxGeometry x="240.46999999999957" y="307.5" width="100" height="60" as="geometry" />
        </mxCell>
        <mxCell id="pZqcnwQ3ei07YMzrSG-r-23" value="Exportar tabelas" style="ellipse;whiteSpace=wrap;html=1;" vertex="1" parent="pZqcnwQ3ei07YMzrSG-r-58">
          <mxGeometry x="241.60000000000014" y="387.5" width="102.55" height="60" as="geometry" />
        </mxCell>
        <mxCell id="pZqcnwQ3ei07YMzrSG-r-24" value="Gerenciar sistema" style="ellipse;whiteSpace=wrap;html=1;" vertex="1" parent="pZqcnwQ3ei07YMzrSG-r-58">
          <mxGeometry x="236.89999999999986" y="467.5" width="109.5" height="60" as="geometry" />
        </mxCell>
        <mxCell id="pZqcnwQ3ei07YMzrSG-r-29" value="Salvar Consultas" style="ellipse;whiteSpace=wrap;html=1;" vertex="1" parent="pZqcnwQ3ei07YMzrSG-r-58">
          <mxGeometry x="238.97000000000003" y="139" width="105" height="60" as="geometry" />
        </mxCell>
        <mxCell id="pZqcnwQ3ei07YMzrSG-r-61" value="" style="swimlane;startSize=0;" vertex="1" parent="1">
          <mxGeometry x="2240" y="-1100" width="460" height="520" as="geometry" />
        </mxCell>
        <mxCell id="g6TlrqKrKqGTbKnrcmNp-19" value="Excluir Consultas" style="ellipse;whiteSpace=wrap;html=1;" vertex="1" parent="pZqcnwQ3ei07YMzrSG-r-61">
          <mxGeometry x="174.72" y="118.5" width="108.56" height="60" as="geometry" />
        </mxCell>
        <mxCell id="g6TlrqKrKqGTbKnrcmNp-21" value="Realizar consultas" style="ellipse;whiteSpace=wrap;html=1;" vertex="1" parent="pZqcnwQ3ei07YMzrSG-r-61">
          <mxGeometry x="181.59999999999965" y="203" width="100" height="60" as="geometry" />
        </mxCell>
        <mxCell id="g6TlrqKrKqGTbKnrcmNp-49" value="Exportar tabelas" style="ellipse;whiteSpace=wrap;html=1;" vertex="1" parent="pZqcnwQ3ei07YMzrSG-r-61">
          <mxGeometry x="182.73000000000022" y="283" width="102.55" height="60" as="geometry" />
        </mxCell>
        <mxCell id="YJ4rmTF5njAcsNLF05vT-2" value="Salvar Consultas" style="ellipse;whiteSpace=wrap;html=1;" vertex="1" parent="pZqcnwQ3ei07YMzrSG-r-61">
          <mxGeometry x="180.1000000000001" y="34.5" width="105" height="60" as="geometry" />
        </mxCell>
        <mxCell id="g6TlrqKrKqGTbKnrcmNp-50" value="Gerenciar sistema" style="ellipse;whiteSpace=wrap;html=1;" vertex="1" parent="pZqcnwQ3ei07YMzrSG-r-61">
          <mxGeometry x="179.24999999999991" y="360" width="109.5" height="60" as="geometry" />
        </mxCell>
        <mxCell id="pZqcnwQ3ei07YMzrSG-r-71" value="Atualizar dados" style="ellipse;whiteSpace=wrap;html=1;" vertex="1" parent="pZqcnwQ3ei07YMzrSG-r-61">
          <mxGeometry x="182.73000000000002" y="440" width="102.55" height="60" as="geometry" />
        </mxCell>
        <mxCell id="pZqcnwQ3ei07YMzrSG-r-74" value="" style="endArrow=classic;html=1;rounded=0;entryX=1;entryY=0.5;entryDx=0;entryDy=0;exitX=0.5;exitY=0.5;exitDx=0;exitDy=0;exitPerimeter=0;" edge="1" parent="1" source="g6TlrqKrKqGTbKnrcmNp-3" target="pZqcnwQ3ei07YMzrSG-r-71">
          <mxGeometry width="50" height="50" relative="1" as="geometry">
            <mxPoint x="2810" y="-870" as="sourcePoint" />
            <mxPoint x="2610" y="-850" as="targetPoint" />
          </mxGeometry>
        </mxCell>
        <mxCell id="pZqcnwQ3ei07YMzrSG-r-79" value="" style="endArrow=none;html=1;rounded=0;entryX=1;entryY=0.5;entryDx=0;entryDy=0;exitX=0.5;exitY=0.5;exitDx=0;exitDy=0;exitPerimeter=0;" edge="1" parent="1" source="g6TlrqKrKqGTbKnrcmNp-2" target="pZqcnwQ3ei07YMzrSG-r-71">
          <mxGeometry width="50" height="50" relative="1" as="geometry">
            <mxPoint x="2825" y="-862" as="sourcePoint" />
            <mxPoint x="2539" y="-700" as="targetPoint" />
          </mxGeometry>
        </mxCell>
      </root>
    </mxGraphModel>
  </diagram>
</mxfile>
